<?xml version="1.0" encoding="utf-8"?><svg version="1.1" id="Layer_1" width="68px" height="68px" xmlns="http://www.w3.org/2000/svg" xmlns:xlink="http://www.w3.org/1999/xlink" x="0px" y="0px" viewBox="0 0 124.2 90.2" style="enable-background:new 0 0 124.2 90.2;" xml:space="preserve"><g><path fill="#e3e3e3" d="M85.1,5.4l-73.5,5.5c-0.4,0-0.7,0.4-0.7,0.8l5.2,61.6c0,0.4,0.4,0.7,0.8,0.7l73.5-5.1c0.4,0,0.7-0.4,0.7-0.8l-5.2-62C85.8,5.7,85.5,5.4,85.1,5.4z M63.6,17.9c4.7-1,8.8,3,7.7,7.7c-0.5,2.4-2.4,4.3-4.8,4.8c-4.7,1-8.8-3-7.7-7.7C59.3,20.3,61.2,18.4,63.6,17.9z M79.7,58.2l-55,3l-1.1-12l12.1-14.6c0.3-0.3,0.7-0.3,1-0.1l18.8,16.3l7.9-9.8c0.3-0.3,0.7-0.4,1-0.1l14.9,13.3L79.7,58.2z"/><path fill="#e3e3e3" d="M94.8,15.8l17.8,1.8c0.4,0,0.7,0.4,0.6,0.8l-6.7,65.7c0,0.4-0.4,0.7-0.8,0.6l-52.3-5.9L98,75.3L94.8,15.8z"/></g></svg>